<!-- icon666.com - MILLIONS vector ICONS FREE --><svg xmlns="http://www.w3.org/2000/svg" viewBox="0 0 128 128"><path d="M119.856,36.3c-4.492,3.092-10.2,3.231-18.386.433a37.988,37.988,0,0,0-74.94,0c-8.185,2.8-13.893,2.66-18.386-.432a2,2,0,0,0-2.98,2.418c.069.165,6.881,16.031,22.982,17.211,7.609,26.844,33.1,64.571,34.2,66.192a2,2,0,0,0,3.308,0c1.1-1.621,26.59-39.347,34.2-66.191,16.094-1.165,22.913-17.046,22.982-17.212a2,2,0,0,0-2.98-2.418ZM64,9A34.091,34.091,0,0,1,97.058,35.047c-4.072-1.706-5.4-2.54-7.48-3.363a27.949,27.949,0,0,0-51.156,0c-1.531.605-3.985,1.9-7.48,3.363A34.091,34.091,0,0,1,64,9ZM84.334,30.259c-7-1.061-14.455,1.147-20.334,5.2-5.814-4-13.251-6.271-20.334-5.2a23.991,23.991,0,0,1,40.668,0ZM64,117.38c-5.773-8.818-25.021-39.151-31.693-61.431a49.638,49.638,0,0,0,6.514-.757,27.957,27.957,0,0,0,50.358,0,49.746,49.746,0,0,0,6.514.757C89.022,78.223,69.774,108.561,64,117.38ZM42.821,54.27c2.792-.773,5.363-1.751,7.91-2.731C55.222,49.812,59.1,48.32,64,48.32s8.778,1.492,13.269,3.219c2.649,1.019,5.144,1.963,7.91,2.731a23.983,23.983,0,0,1-42.358,0ZM97.99,52c-7.448,0-12.45-1.564-19.286-4.194C74.045,46.014,69.645,44.32,64,44.32s-10.045,1.694-14.7,3.486c-14.785,5.688-27.76,7.2-37.366-5.561C16.625,43.3,22.2,42.584,29,40.111c5.361-1.941,9.224-4.134,11.573-4.974C52.2,31.05,62.629,39.4,62.729,39.485a2,2,0,0,0,2.542,0l.059-.047c6.182-4.822,15.817-7.513,24.333-3.36A96.382,96.382,0,0,0,99,40.11c6.8,2.475,12.383,3.188,17.076,2.134C108.034,52.931,98.275,51.9,97.99,52Z"></path></svg>