<!-- icon666.com - MILLIONS vector ICONS FREE --><svg id="Capa_1" enable-background="new 0 0 512 512" viewBox="0 0 512 512" xmlns="http://www.w3.org/2000/svg"><g><path d="m377.133 298.477c-9.128 1.361-18.597 2.609-28.291 3.715 2.835 5.442 6.18 10.317 9.837 14.712 5.442 6.463 11.651 11.877 18.001 16.355 3.401 2.382 4.195 7.06 1.814 10.433-2.353 3.402-7.03 4.195-10.403 1.814-7.371-5.188-14.542-11.452-20.892-18.993-5.471-6.549-10.318-14.031-14.118-22.621-9.44.965-19.049 1.814-28.743 2.523 3.288 11.877 12.303 35.491 35.604 58.792 2.892 2.921 2.892 7.653-.028 10.573-2.948 2.892-7.683 2.892-10.574-.027-27.242-27.271-36.965-55.59-40.168-68.289-9.808.623-19.674 1.105-29.481 1.502.113 10.348 1.531 20.893 3.629 30.843 3.458 16.385 8.76 31.069 13.068 40.622 1.7 3.77.028 8.219-3.742 9.92-3.771 1.701-8.193.029-9.893-3.742-4.677-10.316-10.347-26.107-14.06-43.767-2.268-10.689-3.799-22.083-3.969-33.394-7.398.199-14.769.312-22.054.369v75.742c0 4.139-3.373 7.484-7.512 7.484s-7.512-3.346-7.512-7.484v-75.742c-7.371-.057-14.571-.199-21.572-.398-1.134 37.845-21.488 72.91-21.544 73.023-2.041 3.6-6.633 4.848-10.204 2.777-3.601-2.041-4.848-6.633-2.807-10.205.057-.113 18.653-32.202 19.617-66.162-7.711-.367-15.223-.822-22.508-1.359-3.288 11.537-12.756 35.745-38.353 59.074-3.062 2.779-7.796 2.553-10.574-.51-2.778-3.061-2.551-7.796.51-10.573 21.289-19.389 29.906-38.864 33.223-49.296-6.52-.623-12.898-1.332-19.191-2.098-.794-.113-1.616-.199-2.409-.312-4.479 9.44-10.489 17.234-17.179 23.699-7.852 7.569-16.583 13.237-24.832 17.433-3.686 1.9-8.221.426-10.092-3.26-1.871-3.713-.396-8.222 3.288-10.093 7.144-3.627 14.656-8.475 21.261-14.853 4.45-4.279 8.504-9.297 11.821-15.108-7.824-1.191-15.534-2.494-23.103-3.912-3.175 4.195-7.144 8.249-11.708 11.708-5.584 4.223-12.104 7.654-19.22 9.582-3.997 1.047-8.107-1.305-9.184-5.303-1.049-3.996 1.304-8.105 5.301-9.184 5.13-1.389 9.921-3.913 14.06-7.06 1.333-.992 2.58-2.068 3.742-3.147-8.844-1.871-17.604-3.912-26.362-6.066-3.317-.82-5.698-3.826-5.698-7.283 0-20.099 2.495-38.015 7.087-53.578 4.875-16.582 12.132-30.474 21.204-41.499 8.391-10.179 17.944-17.944 32.486-23.189 13.89-4.99 32.23-7.568 58.48-7.568 13.635 0 27.384.367 40.99 1.332 4.139.311 7.229 3.883 6.945 8.021-.283 4.109-3.883 7.229-7.994 6.916-13.324-.936-26.59-1.246-39.941-1.246-24.549 0-41.274 2.238-53.463 6.604-11.537 4.169-19.191 10.405-25.966 18.626-7.796 9.496-14.089 21.601-18.397 36.228-3.714 12.644-5.925 27.185-6.35 43.514 24.747 5.924 49.721 10.742 77.077 14.115 29.396 3.629 61.542 5.643 99.074 5.643 28.007 0 57.149-1.105 85.411-3.176 24.945-1.814 49.211-4.365 71.351-7.512l-18.369-50.516c-25.173-16.865-47.851-29.538-69.848-38.921-22.479-9.609-44.364-15.789-67.496-19.587-4.082-.652-6.86-4.508-6.208-8.561.681-4.082 4.507-6.861 8.589-6.18 24.35 3.967 47.34 10.459 70.982 20.552 17.859 7.625 36.058 17.262 55.477 29.339-11.907-32.684-23.812-65.397-35.689-98.082h-284.813c-4.195 0-8.221-1.445-11.792-4.025-3.799-2.721-7.059-6.775-9.298-11.65-2.154-4.647-3.458-10.118-3.458-15.902 0-7.881 2.381-16.412 8.192-24.463 6.52-9.071 15.931-17.462 28.602-23.245 10.574-4.875 23.387-7.881 38.581-7.881h109.052c4.139 0 7.484 3.373 7.484 7.512s-3.345 7.484-7.484 7.484h-109.052c-12.954 0-23.67 2.494-32.373 6.463-10.091 4.621-17.547 11.255-22.678 18.37-3.798 5.242-5.329 10.742-5.329 15.76 0 3.573.765 6.89 2.041 9.64 1.191 2.551 2.75 4.562 4.45 5.781 1.021.738 2.069 1.162 3.062 1.162h279.335l-11.962-32.882c-1.729-4.791 1.7-9.809 6.718-10.035 15.79-1.418 29.736.453 41.643 5.867 10.715 4.877 26.108 17.887 30.19 29.114l3.628 9.977c15.789 1.475 34.271 3.885 52.045 7.598 10.121 2.125 20.014 4.705 29.028 7.768-5.698-15.223-20.467-30.162-38.808-42.692-27.78-18.963-63.328-31.89-88.926-31.89h-109.051c-4.139 0-7.512-3.346-7.512-7.484 0-4.139 3.373-7.512 7.512-7.512h109.052c28.376 0 67.267 13.975 97.373 34.528 26.618 18.17 46.717 41.782 47.794 66.219.624 5.641-5.188 10.006-10.517 7.596-10.999-4.988-24.69-8.871-39.007-11.877-14.456-3.033-29.595-5.188-43.286-6.633 24.493 67.324 48.984 134.65 73.477 201.945 1.417 3.885-.596 8.193-4.479 9.582-3.884 1.418-8.164-.596-9.582-4.478l-44.817-123.197h-37.645c33.138 91.079 66.304 182.16 99.442 273.212h37.646l-43.003-118.068c-1.39-3.883.623-8.191 4.507-9.58 3.884-1.418 8.164.596 9.582 4.479l46.631 128.131c1.757 4.875-1.928 10.062-7.03 10.062h-53.548c-3.459 0-6.35-2.324-7.229-5.5zm-25.853-114.749h37.645l-7.37-20.212h-37.616zm24.832-35.206c-6.52-17.888-13.012-35.748-19.531-53.635-5.755-9.949-13.295-16.896-22.452-21.091-7.172-3.26-15.42-4.875-24.661-4.988 9.666 26.562 19.332 53.123 28.999 79.714z"></path></g></svg>