<!-- icon666.com - MILLIONS vector ICONS FREE --><svg id="Layer_1" enable-background="new 0 0 64 64" viewBox="0 0 64 64" xmlns="http://www.w3.org/2000/svg"><path d="m63 16h-3v-6c0-.553-.448-1-1-1h-3v-1c0-.553-.448-1-1-1h-4c-.552 0-1 .447-1 1v8h-2v-3c0-.553-.448-1-1-1h-4c-.552 0-1 .447-1 1v3h-20v-3c0-.553-.448-1-1-1h-4c-.552 0-1 .447-1 1v3h-2v-8c0-.553-.448-1-1-1h-4c-.552 0-1 .447-1 1v1h-3c-.552 0-1 .447-1 1v6h-3c-.552 0-1 .447-1 1v4c0 .553.448 1 1 1h3v6c0 .553.448 1 1 1h3v1c0 .553.448 1 1 1h4c.552 0 1-.447 1-1v-8h2v21h-8c-1.654 0-3 1.346-3 3v4c0 .553.448 1 1 1h3v5c0 .553.448 1 1 1h4c.552 0 1-.447 1-1v-5h34v5c0 .553.448 1 1 1h4c.552 0 1-.447 1-1v-5h3c.552 0 1-.447 1-1v-4c0-1.654-1.346-3-3-3h-8v-21h2v8c0 .553.448 1 1 1h4c.552 0 1-.447 1-1v-1h3c.552 0 1-.447 1-1v-6h3c.552 0 1-.447 1-1v-4c0-.553-.448-1-1-1zm-19-2h2v2h-2zm-26 0h2v2h-2zm-16 6v-2h2v2zm4 7v-16h2v16zm6 2h-2v-20h2zm6-7h2v21h-2zm24 0v21h-20v-21zm-29 33h-2v-4h2zm40 0h-2v-4h2zm4-9v3h-50v-3c0-.552.449-1 1-1h48c.551 0 1 .448 1 1zm-11-3h-2v-21h2zm-32-23v-2h36v2zm40 9h-2v-20h2zm4-2h-2v-16h2zm4-7h-2v-2h2z"></path></svg>