<!-- icon666.com - MILLIONS vector ICONS FREE --><svg version="1.1" id="Capa_1" xmlns="http://www.w3.org/2000/svg" xmlns:xlink="http://www.w3.org/1999/xlink" x="0px" y="0px" viewBox="0 0 365.787 365.787" style="enable-background:new 0 0 365.787 365.787;" xml:space="preserve"><path d="M182.893,0C102.611,0,37.296,65.314,37.296,145.596v14.583c0,34.972,28.453,63.424,63.426,63.424 c0.558,0,1.105-0.051,1.635-0.148c9.479,20.051,24.602,37.033,43.866,48.26c14.067,8.198,25.373,11.862,36.655,11.882 c0.005,0,0.01,0,0.015,0h0h0.001h0c0.004,0,0.01,0,0.015,0c11.283-0.02,22.588-3.684,36.655-11.882 c19.264-11.228,34.387-28.209,43.866-48.26c0.531,0.097,1.078,0.148,1.637,0.148c34.973,0,63.425-28.452,63.425-63.424v-14.583 C328.491,65.314,263.176,0,182.893,0z M310.491,160.179c0,23.307-17.646,42.571-40.279,45.134 c2.874-10.208,4.389-20.925,4.389-31.874c0-17.074-2.722-32.803-8.089-46.754c-0.146-0.405-0.322-0.802-0.53-1.19 c-0.5-0.939-1.151-1.76-1.91-2.444c-0.984-0.889-2.135-1.531-3.36-1.911c-1.263-0.394-2.62-0.511-3.971-0.312 c-1,0.146-1.987,0.461-2.917,0.956c-0.382,0.203-0.746,0.43-1.088,0.679c-18.232,12.651-47.049,19.421-77.138,18.12 c-4.975-0.221-9.166,3.637-9.381,8.603c-0.215,4.966,3.637,9.166,8.603,9.381c28.947,1.25,57.205-4.38,78.141-15.285 c2.419,9.271,3.641,19.371,3.641,30.157c0,34.452-17.665,66.15-46.101,82.723c-11.164,6.506-19.679,9.416-27.607,9.434 c-7.927-0.018-16.443-2.927-27.608-9.434c-28.436-16.573-46.101-48.271-46.101-82.723c0-10.778,1.22-20.871,3.634-30.135 c2.767,1.451,5.659,2.81,8.666,4.07l1.122,0.471c7.258,3.049,12.052,5.065,17.433,2.77c5.267-2.246,7.112-7.049,9.448-13.13 c0.518-1.347,1.106-2.881,1.807-4.618c2.928-7.253,6.143-16.178,7.32-20.318c1.359-4.781-1.414-9.759-6.195-11.119 c-4.785-1.36-9.759,1.414-11.119,6.195c-0.887,3.12-3.791,11.3-6.698,18.505c-0.744,1.842-1.37,3.47-1.918,4.9 c-0.165,0.429-0.335,0.871-0.503,1.306c-0.843-0.346-1.743-0.724-2.602-1.085l-1.138-0.478c-5.722-2.397-10.9-5.193-15.396-8.312 c-0.333-0.242-0.686-0.463-1.056-0.662c-0.939-0.504-1.936-0.825-2.947-0.971c-1.349-0.198-2.699-0.081-3.959,0.309 c-1.236,0.382-2.397,1.031-3.388,1.931c-0.757,0.685-1.405,1.507-1.903,2.448c-0.202,0.38-0.375,0.77-0.518,1.166 c-5.368,13.95-8.09,29.681-8.09,46.758c0,10.948,1.515,21.665,4.389,31.873c-22.634-2.563-40.278-21.827-40.278-45.134v-14.583 C55.296,75.239,112.536,18,182.895,18c70.356,0,127.596,57.239,127.596,127.596V160.179z M164.309,317.906 c-6.532,21.363-26.693,37.34-59.923,47.486c-0.875,0.267-1.761,0.395-2.631,0.395c-3.855,0-7.421-2.496-8.605-6.375 c-1.451-4.754,1.226-9.784,5.98-11.236c27.153-8.291,43.291-20.246,47.966-35.533c1.453-4.752,6.48-7.431,11.238-5.975 C163.088,308.122,165.763,313.153,164.309,317.906z M271.979,359.412c-1.184,3.878-4.75,6.375-8.604,6.375 c-0.871,0-1.755-0.127-2.631-0.395c-33.229-10.146-53.39-26.122-59.923-47.485c-1.454-4.753,1.221-9.785,5.975-11.238 c4.756-1.453,9.785,1.222,11.238,5.975c4.675,15.288,20.813,27.243,47.966,35.533C270.753,349.628,273.43,354.658,271.979,359.412z"></path></svg>