<!-- icon666.com - MILLIONS vector ICONS FREE --><svg id="Layer_1" viewBox="0 0 512 512" xmlns="http://www.w3.org/2000/svg" data-name="Layer 1"><path d="m132.974 377.626a6 6 0 1 0 -12 0v6.1a6 6 0 1 0 12 0z"></path><path d="m126.974 403.492a6 6 0 0 0 -6 6v66.33a6 6 0 1 0 12 0v-66.33a6 6 0 0 0 -6-6z"></path><path d="m384.344 11.757a6 6 0 0 0 -8.486 0l-131.519 131.52a5.977 5.977 0 0 0 -1.459 6.027l-39 26.508a52.334 52.334 0 0 0 -28.637-8.787 51.292 51.292 0 0 0 -36.657 15.19 53.657 53.657 0 0 0 -15.805 37.785l.009 21.955a74.253 74.253 0 0 0 -22.622 50.755v.18l-1.77 203.055a6 6 0 0 0 6 6.052l141.284-.067a6 6 0 0 0 6-6.058l-.915-95.277a6 6 0 1 0 -12 .115l.858 89.223-129.178.067 1.716-196.909a62.386 62.386 0 0 1 10.637-32.591l.025 56.629a29.517 29.517 0 0 0 29.481 29.471h.012l44.722-.02a30.238 30.238 0 0 0 20.8-8.041 29.286 29.286 0 0 0 9.1-18.525l.116-59.532a62.554 62.554 0 0 1 10.665 32.555l.554 57.679a6 6 0 0 0 12-.115l-.555-57.771c0-.06 0-.12 0-.181a74.474 74.474 0 0 0 -20.586-48.628 6 6 0 0 0 3.866-2.521l41.3-60.773a5.849 5.849 0 0 0 6.027-1.458l131.52-131.52a6 6 0 0 0 0-8.485zm-169.609 308.843-.012.047c-1.6 6.275-5.715 11.585-11.994 13.168l-50.416.78h-.007a17.5 17.5 0 0 1 -17.483-17.474l-.042-97.121a41.583 41.583 0 0 1 12.262-29.275 39.223 39.223 0 0 1 28.124-11.7 39.747 39.747 0 0 1 17.745 4.239l-10.805 7.343a6 6 0 0 0 -.87 9.205l33.805 33.8zm12.415-91.848-32.3-32.3 56.072-38.108 14.336 14.336zm48.936-62.215-19.019-19.017 14.433-14.435 19.021 19.015zm22.92-22.92-19.019-19.017 100.113-100.115 19.021 19.015z"></path></svg>