<!-- icon666.com - MILLIONS vector ICONS FREE --><svg xmlns="http://www.w3.org/2000/svg" id="Icons" viewBox="0 0 60 60"><path d="M58.809,35.305a2.31,2.31,0,0,0-2.358.033L48.721,40H40a3,3,0,0,0-3,3v4a3,3,0,0,0,3,3v2H32V46A11.994,11.994,0,0,0,20,34V32.243a11.019,11.019,0,0,0,6.965-9.36A4.009,4.009,0,0,0,30,19V16a2.984,2.984,0,0,0-1.126-2.324A1.974,1.974,0,0,0,29,13V9a9.01,9.01,0,0,0-9-9H12A9.01,9.01,0,0,0,3,9v4a1.974,1.974,0,0,0,.126.676A2.984,2.984,0,0,0,2,16v3a4.009,4.009,0,0,0,3.035,3.883A11.019,11.019,0,0,0,12,32.243V34A11.994,11.994,0,0,0,0,46V56a4,4,0,0,0,4,4H40a4.021,4.021,0,0,0,1.822-.448A3.452,3.452,0,0,0,43.5,60,3.5,3.5,0,0,0,47,56.5V50h1.721l7.73,4.662A2.342,2.342,0,0,0,60,52.652v-15.3A2.317,2.317,0,0,0,58.809,35.305ZM5,9a7.009,7.009,0,0,1,7-7h8a7.009,7.009,0,0,1,7,7v4H5Zm20.587,6C24.8,16.191,22.533,18,16,18s-8.811-1.814-9.592-3ZM7,22a1,1,0,0,0-1-1,2,2,0,0,1-2-2V16a1,1,0,0,1,.3-.713C5.026,17.053,7.511,20,16,20s10.974-2.946,11.7-4.712A1,1,0,0,1,28,16v3a2,2,0,0,1-2,2,1,1,0,0,0-1,1A9,9,0,0,1,7,22Zm9,11a10.989,10.989,0,0,0,2-.187V35a2,2,0,0,1-4,0V32.813A10.989,10.989,0,0,0,16,33Zm-3.858,3a3.981,3.981,0,0,0,7.716,0H20a10.1,10.1,0,0,1,1.8.168,8.95,8.95,0,0,1-3.247,5.781,3.919,3.919,0,0,0-5.114,0A8.95,8.95,0,0,1,10.2,36.168,10.1,10.1,0,0,1,12,36ZM16,43a2,2,0,1,1-2,2A2,2,0,0,1,16,43ZM2,56V46a10,10,0,0,1,6.25-9.273,10.976,10.976,0,0,0,4.025,6.845A3.973,3.973,0,0,0,18,48.444V51a1,1,0,0,0,2,0V45a3.965,3.965,0,0,0-.275-1.428,10.976,10.976,0,0,0,4.025-6.845A10,10,0,0,1,30,46v6a2,2,0,0,0,2,2h3v4H29a3,3,0,0,1-3-3V47a1,1,0,0,0-2,0v8a4.948,4.948,0,0,0,1.026,3H8V47a1,1,0,0,0-2,0V58H4A2,2,0,0,1,2,56Zm35,2V54h3v2.5a3.471,3.471,0,0,0,.333,1.467A1.947,1.947,0,0,1,40,58Zm8-1.5a1.5,1.5,0,0,1-3,0V50h3ZM48,48H40a1,1,0,0,1-1-1V43a1,1,0,0,1,1-1h8Zm10,4.652a.333.333,0,0,1-.175.3.33.33,0,0,1-.341-.005L50,48.435v-6.87l7.484-4.514a.33.33,0,0,1,.341-.005.333.333,0,0,1,.175.3Z"></path></svg>