<!-- icon666.com - MILLIONS vector ICONS FREE --><svg viewBox="0 0 512 512" xmlns="http://www.w3.org/2000/svg"><path d="m504.243 457.697h-18.331c10.1-9.867 16.386-23.621 16.386-38.822 0-20.397-11.308-38.194-27.979-47.474 16.671-9.281 27.979-27.078 27.979-47.474 0-29.943-24.359-54.303-54.302-54.303h-5.642v-17.587c0-33.66-26.691-60.747-64.906-65.87-3.642-.489-8.027-.817-12.668-.989v-6.723c14.891-2.981 48.318-13.132 48.484-44.259.222-41.589-48.632-91.725-50.711-93.839a7.759 7.759 0 0 0 -10.816-.239c-2.076 1.934-50.87 47.88-50.955 94.022-.056 31.007 33.567 41.266 48.484 44.293v6.745c-4.641.173-9.025.501-12.666.989-38.217 5.124-64.908 32.21-64.908 65.87v17.571l-23.406-.002v-67.252c0-28.553-20.657-52.841-38.881-74.269-4.633-5.447-9.009-10.592-12.925-15.64-6.957-8.969-5.838-41.877-2.822-62.38a7.76 7.76 0 0 0 -7.674-8.889h-6.087l6.769-31.803a7.76 7.76 0 0 0 -7.589-9.373h-51.641a7.756 7.756 0 0 0 -7.588 9.372l6.769 31.803h-6.087a7.756 7.756 0 0 0 -7.674 8.89c3.025 20.492 4.149 53.392-2.821 62.377-2.86 3.686-5.967 7.412-8.355 10.247a7.758 7.758 0 0 0 11.868 9.994c2.48-2.945 5.717-6.827 8.746-10.731 10.936-14.098 8.924-47.992 7.04-65.262h47.848c-1.884 17.27-3.897 51.164 7.04 65.262 4.131 5.324 8.616 10.598 13.365 16.183 17.298 20.338 35.185 41.369 35.185 64.217v12.185c-19.332-6.878-49.529 1.065-81.066 9.376-18.898 4.979-39.21 10.329-54.689 11.249v-32.81c0-14.291 15.069-32.008 29.656-49.158 4.702-5.528 9.563-11.244 14.01-16.976 10.08-12.995 14.524-34.648 13.208-64.356-.189-4.278-3.76-7.563-8.094-7.406a7.757 7.757 0 0 0 -7.406 8.094c1.133 25.564-2.314 44.293-9.968 54.159-4.232 5.455-8.979 11.037-13.583 16.451-16.39 19.27-33.338 39.197-33.338 59.193v31.583c-3.366-1.019-6.003-2.669-7.757-5.067v-26.516c0-18.103 11.417-34.953 22.587-49.047a7.757 7.757 0 1 0 -12.16-9.637c-12.827 16.188-25.941 35.82-25.941 58.684v153c-19.965-6.736-39.018-7.532-46.729-7.532-2.613 0-4.085.083-4.085.083-3.941.227-7.101 3.377-7.319 7.318-.124 2.265-2.687 55.82 29.687 88.193 5.824 5.824 12.367 10.504 19.182 14.282h-41.2a7.757 7.757 0 0 0 -7.757 7.758c0 25.664 20.88 46.545 46.545 46.545h418.901c25.664 0 46.544-20.881 46.544-46.545a7.757 7.757 0 0 0 -7.757-7.758zm-334.749-442.182-5.431 25.516h-21.615l-5.431-25.516zm-24.81 366.299a7.757 7.757 0 0 0 10.886 1.36c20.874-16.242 49.551-19.267 62.873-19.75-.53 14.689-4.144 48.028-25.137 69.021-20.535 20.536-52.835 24.432-67.979 25.09a154.06 154.06 0 0 0 -.48-8.345c1.237-13.019 4.777-31.89 14.65-47.924a7.758 7.758 0 0 0 -13.212-8.136c-3.86 6.269-6.87 12.834-9.234 19.348-4.431-12.218-11.177-24.617-21.445-34.886-5.796-5.796-12.305-10.458-19.084-14.226 2.581-29.085 29.602-54.231 40.508-63.264 10.91 9.036 37.924 34.177 40.508 63.258-3.947 2.205-7.81 4.702-11.495 7.569a7.756 7.756 0 0 0 -1.359 10.885zm59.594 61.601c12.089-12.089 19.303-27.131 23.595-41.354 1.66 2.136 3.662 3.994 5.955 5.445-6.722 6.979-10.862 16.462-10.862 26.894 0 8.748 2.946 16.801 7.85 23.297h-45.636c6.768-3.78 13.277-8.461 19.098-14.282zm30.718-75.953c-.415.23-.814.484-1.213.738.038-.634.071-1.241.1-1.837.363.376.736.739 1.113 1.099zm251.787 51.413c0 21.388-17.399 38.788-38.787 38.788l-186.243.009c-12.832 0-23.272-10.439-23.272-23.273 0-12.833 10.44-23.273 23.272-23.273.032 0 .062-.009.094-.009h186.084c4.278 0 7.757 3.479 7.757 7.758s-3.479 7.758-7.757 7.758h-186.169a7.758 7.758 0 0 0 0 15.516h186.169c12.833 0 23.272-10.439 23.272-23.273s-10.439-23.273-23.272-23.273h-185.985c-.104-.004-.206-.019-.311-.019h-15.397c-4.277 0-7.757-3.479-7.757-7.758 0-4.278 3.48-7.758 7.756-7.758l201.758.019c21.388 0 38.788 17.4 38.788 38.788zm0-94.949c0 21.388-17.399 38.788-38.787 38.788l-186.243.009c-12.832 0-23.272-10.439-23.272-23.273 0-12.833 10.44-23.273 23.272-23.273.032 0 .062-.009.094-.009h186.084c4.278 0 7.757 3.479 7.757 7.758s-3.479 7.758-7.757 7.758h-106.394c-4.284 0-7.757 3.473-7.757 7.758s3.473 7.758 7.757 7.758h106.394c12.833 0 23.272-10.439 23.272-23.273 0-12.833-10.439-23.273-23.272-23.273h-185.985c-.104-.004-.206-.019-.311-.019h-15.397c-4.277 0-7.757-3.479-7.757-7.758s3.48-7.758 7.756-7.758l201.758.019c21.388 0 38.788 17.4 38.788 38.788zm-170.487-189.759c.057-31.045 28.335-64.269 40.528-77.152 12.199 13.711 41.073 49.139 40.925 77.096-.046 8.654-4.873 14.892-11.218 19.362 2.091-4.452 3.431-9.466 3.454-15.029.011-2.874-.263-5.87-.814-8.907-.765-4.218-4.81-7.021-9.017-6.248a7.756 7.756 0 0 0 -6.248 9.017c.381 2.106.572 4.152.564 6.076-.051 11.997-11.532 20.796-17.43 24.526-5.913-3.769-17.483-12.658-17.466-24.481.025-16.613 10.625-30.492 17.208-37.51a97.875 97.875 0 0 1 7.373 9.474 7.754 7.754 0 0 0 10.778 2.047 7.757 7.757 0 0 0 2.047-10.778c-7.024-10.321-14.403-17.137-14.714-17.422a7.753 7.753 0 0 0 -10.121-.319c-1.144.924-28.039 23.013-28.087 54.486-.008 5.555 1.321 10.57 3.415 15.028-6.365-4.466-11.193-10.679-11.177-19.266zm-29.091 117.869c0-30.115 25.842-47.059 51.455-50.493 9.951-1.335 26.77-1.335 36.725 0 25.611 3.434 51.454 20.379 51.454 50.493v17.585l-116.361-.011v-17.574c0-16.049 15.708-25.34 31.278-27.427 7.988-1.072 22.541-1.072 30.537 0 4.231.578 8.149-2.412 8.72-6.657a7.759 7.759 0 0 0 -6.659-8.72c-9.398-1.261-25.27-1.261-34.66 0-22.265 2.985-44.73 17.378-44.73 42.804v17.573l-7.757-.001v-17.572zm-205.705-2.174v30.761a7.758 7.758 0 1 0 15.514 0v-29.999c17.369-.844 38.175-6.315 58.642-11.709 30.927-8.151 65.741-17.317 77.113-6.606v41.623c-5.922 4.223-9.804 11.132-9.804 18.944 0 8.273 4.34 15.553 10.862 19.68-6.722 6.979-10.862 16.462-10.862 26.894a38.7 38.7 0 0 0 .935 8.371c-7.578-.101-29.403.435-51.62 8.739-6.915-40.766-48.796-71.247-50.733-72.635a7.755 7.755 0 0 0 -9.036 0c-1.408 1.009-23.913 17.388-38.769 41.904v-78.111c2.409.948 5 1.657 7.758 2.144zm-65.885 113.545c14.624.502 47.938 4.072 69.019 25.153 17.68 17.681 23.018 44.079 24.584 60.755a152.833 152.833 0 0 0 -.476 8.239c-15.089-.629-47.368-4.487-67.989-25.109-21.003-21.004-24.611-54.364-25.138-69.038zm449.84 133.078h-418.9c-14.432 0-26.595-9.903-30.048-23.273h478.997c-3.454 13.369-15.617 23.273-30.049 23.273z"></path><path d="m315.278 331.684h-53.516c-4.284 0-7.757 3.473-7.757 7.758s3.473 7.758 7.757 7.758h53.516c4.284 0 7.757-3.473 7.757-7.758s-3.472-7.758-7.757-7.758z"></path></svg>