<!-- icon666.com - MILLIONS vector ICONS FREE --><svg xmlns="http://www.w3.org/2000/svg" viewBox="0 0 512 512"><g id="outline"><path d="M336.248,168a48,48,0,0,0-.241-96h-.255a48,48,0,0,0,.241,96ZM304,120.165a31.79,31.79,0,0,1,9.256-22.675h0A31.786,31.786,0,0,1,335.835,88H336a32,32,0,0,1,.161,64H336a32,32,0,0,1-32-31.835Z"></path><path d="M386.648,76.827a7.979,7.979,0,0,0,5.687-2.372L409.218,57.4a8,8,0,0,0-11.373-11.255L380.962,63.2a8,8,0,0,0,5.686,13.628Z"></path><path d="M335.628,56h.042a8,8,0,0,0,7.959-8.041l-.123-24a8,8,0,0,0-8-7.959h-.042a8,8,0,0,0-7.959,8.041l.123,24A8,8,0,0,0,335.628,56Z"></path><path d="M279.2,75.038a8,8,0,1,0,11.256-11.373L273.4,46.782a8,8,0,1,0-11.255,11.373Z"></path><path d="M240,128.494h.042l24-.123a8,8,0,0,0-.04-16h-.042l-24,.123a8,8,0,0,0,.04,16Z"></path><path d="M336.493,224h.042a8,8,0,0,0,7.959-8.041l-.123-24a8,8,0,0,0-8-7.959h-.042a8,8,0,0,0-7.959,8.041l.123,24A8,8,0,0,0,336.493,224Z"></path><path d="M381.486,165.021a8,8,0,0,0,.059,11.314L398.6,193.218a8,8,0,1,0,11.255-11.373L392.8,164.962A8,8,0,0,0,381.486,165.021Z"></path><path d="M400,119.67a8,8,0,0,0,8,7.959h.042l24-.123a8,8,0,0,0-.04-16h-.042l-24,.123A8,8,0,0,0,400,119.67Z"></path><path d="M362.009,61.523a7.993,7.993,0,0,0,10.561-4.057l3.252-7.31a8,8,0,0,0-14.619-6.5l-3.252,7.31A8,8,0,0,0,362.009,61.523Z"></path><path d="M302.705,55.661a8,8,0,0,0,14.936-5.738l-2.87-7.468a8,8,0,1,0-14.935,5.738Z"></path><path d="M259.652,94.8l7.31,3.252a8,8,0,0,0,6.5-14.619l-7.31-3.252a8,8,0,0,0-6.5,14.619Z"></path><path d="M265.923,138.359l-7.468,2.87a8,8,0,1,0,5.738,14.935l7.468-2.869a8,8,0,0,0-5.738-14.936Z"></path><path d="M299.43,182.534l-3.252,7.31a8,8,0,1,0,14.619,6.5l3.252-7.31a8,8,0,0,0-14.619-6.5Z"></path><path d="M358.958,179.74a8,8,0,0,0-4.6,10.337l2.87,7.468a8,8,0,1,0,14.935-5.738l-2.869-7.468A8,8,0,0,0,358.958,179.74Z"></path><path d="M405.844,159.822a8,8,0,0,0,6.5-14.619l-7.31-3.252a8,8,0,0,0-6.5,14.619Z"></path><path d="M407.807,83.836l-7.468,2.869a8,8,0,1,0,5.738,14.936l7.468-2.87a8,8,0,1,0-5.738-14.935Z"></path><path d="M378.933,225.518a27.9,27.9,0,0,0-11.674,7.7,32.023,32.023,0,0,0-21.437,41.448A8,8,0,0,0,353.365,280H486.992a8,8,0,0,0,7.747-6.006A40.026,40.026,0,0,0,456,224a39.579,39.579,0,0,0-4.054.208,47.97,47.97,0,0,0-73.013,1.31ZM442.1,237.5a8,8,0,0,0,8.36,3.152A23.993,23.993,0,0,1,480,264H360a15.968,15.968,0,0,1,13.152-15.741,8,8,0,0,0,5.094-3.219,11.973,11.973,0,0,1,7.137-4.741,8,8,0,0,0,4.731-3.1,31.984,31.984,0,0,1,51.986.3Z"></path><path d="M176,208h96a8,8,0,0,0,8-8,32.241,32.241,0,0,0-1.691-10.337L291.038,176.8a8,8,0,1,0-11.373-11.256l-10.407,10.516a31.791,31.791,0,0,0-12.361-6.807,40.007,40.007,0,0,0-69.786,7.246A24.041,24.041,0,0,0,168,200,8,8,0,0,0,176,208Zm24.747-21.968a24,24,0,0,1,44.175-5.786,8,8,0,0,0,5.682,3.968,15.9,15.9,0,0,1,10.149,6.107A7.96,7.96,0,0,0,261.41,192H193.9A8,8,0,0,0,200.747,186.032ZM191.955,192h0Z"></path><path d="M488,480H417.263V464a8,8,0,0,0-5.47-7.59l-21.272-7.09L379.7,432H400a8,8,0,0,0,8-8V400a8,8,0,0,0-4.307-7.1l-28.162-14.66-31.582-75.8A36.474,36.474,0,0,0,297.815,282.2l-57.021,20.735A28.039,28.039,0,0,0,213.263,280H192.211l-7.051-10.576A32.043,32.043,0,0,0,153.263,240H127.028l-4.612-13.839,6.389-6.388a19.979,19.979,0,0,0,3.746-23.087l-3.288-6.575V176a7.961,7.961,0,0,0-1.74-4.972l23.285-25.106a8.13,8.13,0,0,0,.791-1,26.371,26.371,0,0,0-3.287-33.184,26.075,26.075,0,0,0-18.58-7.7c-.156,0-.312,0-.469,0a26.08,26.08,0,0,0-18.772,8.351L88.776,135.654A40,40,0,0,0,34.6,193.7L22.794,206.35a25.277,25.277,0,0,0,27.063,41.006,30.227,30.227,0,0,0,3.809,9.806,24.129,24.129,0,0,0-2.609,4.209,23.576,23.576,0,0,0,2.7,25.053l90.471,115.023L115.659,480H24a8,8,0,0,0,0,16H488a8,8,0,0,0,0-16ZM303.284,297.232a20.475,20.475,0,0,1,25.9,11.369l32.7,78.476a8,8,0,0,0,3.691,4.019L392,404.854V416H371.313L332.3,376.987a65.375,65.375,0,0,1-19.045-48.672,8,8,0,0,0-7.27-8.282l-52.324-4.757ZM166.272,351.411,147.614,328h35.107A74.129,74.129,0,0,0,166.272,351.411ZM225.263,308a4,4,0,0,1-4,4h-82a12,12,0,0,1-5.46-1.328L93.03,258.355h0A6.472,6.472,0,0,1,98.207,248a20.092,20.092,0,0,1,16.751,8.965l23.648,35.473A8,8,0,0,0,145.263,296h68A12.013,12.013,0,0,1,225.263,308ZM67.192,248.575a14.6,14.6,0,0,1-1.929-7.277,163.613,163.613,0,0,0-7.491-48.975l27.917-29.911a24.727,24.727,0,0,1,1.06,4.022l-.387,1.742a69.583,69.583,0,0,1-18.756,34.167,8,8,0,0,0-1,10.095A86.713,86.713,0,0,1,79.265,242.4a21.591,21.591,0,0,0-2.68,5.965,23.949,23.949,0,0,0-9.393.208ZM113.263,183.7V192a8,8,0,0,0,.844,3.578l4.133,8.263a4,4,0,0,1-.749,4.618l-9.885,9.884a8,8,0,0,0-1.933,8.187l2.272,6.817A36.184,36.184,0,0,0,98.207,232a22.742,22.742,0,0,0-4.9.538,102.373,102.373,0,0,0-10.021-23.582,85.486,85.486,0,0,0,16.366-28.869A48.487,48.487,0,0,0,113.263,183.7Zm56,88.3a8,8,0,0,0,1.343,4.438L172.981,280H149.544l-16-24h19.719A16.019,16.019,0,0,1,169.263,272ZM122.188,123.305A10.3,10.3,0,0,1,137,123.049a10.331,10.331,0,0,1,1.579,12.53L109.71,166.7a32.231,32.231,0,0,1-7.217-3.085,40.866,40.866,0,0,0-5.1-13.746ZM41.263,168a24,24,0,0,1,36.464-20.508l-32.07,34.361A23.836,23.836,0,0,1,41.263,168Zm0,64.85a9.264,9.264,0,0,1-6.773-15.583l10.5-11.253a147.391,147.391,0,0,1,3.773,23.17l-.954.953A9.2,9.2,0,0,1,41.264,232.85Zm24.184,35.511A7.594,7.594,0,0,1,72.415,264a7.706,7.706,0,0,1,6.057,2.918l84.535,106.068A8,8,0,0,0,169.263,376H274.857a143.1,143.1,0,0,0,5,16H157.148L66.328,276.532A7.592,7.592,0,0,1,65.448,268.361ZM326.866,480l-13.189-36.271,33.011,33.01,1.63,3.261ZM165.4,480l17.143-40h77.449l17.143,40Zm129.143,0-21.922-51.151A8,8,0,0,0,265.263,424h-88a8,8,0,0,0-7.354,4.849L147.987,480h-15.3l26.181-72H283.659l26.182,72Zm71.669,0-5.789-11.578a8.033,8.033,0,0,0-1.5-2.079l-35.155-35.155a126.333,126.333,0,0,1-34.658-64.757A8,8,0,0,0,281.263,360l-.013.032c-.209-.016-.418-.032-.631-.032H180.028a58.262,58.262,0,0,1,28.91-30.966l2.15-1.034,86.242,7.312a81.472,81.472,0,0,0,23.657,52.99l33.606,33.606a8.223,8.223,0,0,0,.45.834l23.436,37.5a8.005,8.005,0,0,0,4.253,3.35l18.531,6.176V480Z"></path></g></svg>