<!-- icon666.com - MILLIONS vector ICONS FREE --><svg xmlns="http://www.w3.org/2000/svg" id="icons" viewBox="0 0 64 64"><path d="M34,53.01465a1,1,0,0,1-.707-1.707L45.69531,38.90527a.96123.96123,0,0,1,.10059-.11816A9.25558,9.25558,0,0,0,32.70605,25.69824a1.00082,1.00082,0,0,1-1.4121,0,9.25592,9.25592,0,0,0-13.083,13.09668L30.708,51.292A.99989.99989,0,1,1,29.294,52.70605L16.79688,40.209A11.25588,11.25588,0,0,1,32,23.63477,11.25551,11.25551,0,0,1,47.32617,40.083a.9209.9209,0,0,1-.10644.126L34.707,52.72168A.99676.99676,0,0,1,34,53.01465Z"></path><path d="M40,18H24a.9989.9989,0,0,1-.94824-.68359l-1-3A.999.999,0,0,1,23,13H41a.999.999,0,0,1,.94824,1.31641l-1,3A.9989.9989,0,0,1,40,18ZM24.7207,16H39.2793l.333-1H24.3877Z"></path><path d="M34,15H30a.99943.99943,0,0,1-1-1V1a.99943.99943,0,0,1,1-1h4a.99943.99943,0,0,1,1,1V14A.99943.99943,0,0,1,34,15Zm-3-2h2V2H31Z"></path><path d="M36,40H28a1,1,0,0,1,0-2h8a1,1,0,0,1,0,2Z"></path><path d="M29.999,12a.9998.9998,0,0,1-.24121-1.96973l4-1a.99952.99952,0,0,1,.48438,1.93946l-4,1A.99349.99349,0,0,1,29.999,12Z"></path><path d="M29.999,9a.9998.9998,0,0,1-.24121-1.96973l4-1a.99952.99952,0,0,1,.48438,1.93946l-4,1A.99349.99349,0,0,1,29.999,9Z"></path><path d="M29.999,6a.9998.9998,0,0,1-.24121-1.96973l4-1a.99952.99952,0,0,1,.48438,1.93946l-4,1A.99349.99349,0,0,1,29.999,6Z"></path><path d="M30,24.43457a.99943.99943,0,0,1-1-1V17a1,1,0,0,1,2,0v6.43457A.99943.99943,0,0,1,30,24.43457Z"></path><path d="M34,24.43457a.99943.99943,0,0,1-1-1V17a1,1,0,0,1,2,0v6.43457A.99943.99943,0,0,1,34,24.43457Z"></path><path d="M30,61a.99943.99943,0,0,1-1-1V39a1,1,0,0,1,2,0V60A.99943.99943,0,0,1,30,61Z"></path><path d="M34,61a.99943.99943,0,0,1-1-1V39a1,1,0,0,1,2,0V60A.99943.99943,0,0,1,34,61Z"></path><path d="M32.001,64a.99845.99845,0,0,1-.833-.44531l-2-3A1,1,0,1,1,30.832,59.44531l2,3A1,1,0,0,1,32.001,64Z"></path><path d="M31.999,64a1,1,0,0,1-.83105-1.55469l2-3A1,1,0,1,1,34.832,60.55469l-2,3A.99845.99845,0,0,1,31.999,64Z"></path><path d="M22.99316,58h-.03808a2.99936,2.99936,0,0,1-2.96094-3.03906c.01758-1.42285,1.81055-3.18848,2.35938-3.69531a.99905.99905,0,0,1,1.376.01757c.53614.52051,2.28223,2.33106,2.26367,3.75586a2.99892,2.99892,0,0,1-3,2.96094Zm.02149-4.55176a4.303,4.303,0,0,0-1.02051,1.541A.99862.99862,0,0,0,22.98145,56a1.0751,1.0751,0,0,0,.71-.28418.98914.98914,0,0,0,.30175-.70215A4.28544,4.28544,0,0,0,23.01465,53.44824Z"></path><path d="M41,63h-.03809A3.00562,3.00562,0,0,1,38,59.96094c.01855-1.42383,1.81152-3.18848,2.36035-3.69531a.99905.99905,0,0,1,1.376.01757c.53515.52051,2.28125,2.33106,2.26367,3.75489v.001A3.00469,3.00469,0,0,1,41,63Zm.02051-4.55078A4.28545,4.28545,0,0,0,40,59.98926,1.00175,1.00175,0,0,0,40.98828,61H41a1.00209,1.00209,0,0,0,1-.98535A4.3019,4.3019,0,0,0,41.02051,58.44922ZM43,60.02539h0Zm0,0h0Z"></path></svg>