<!-- icon666.com - MILLIONS vector ICONS FREE --><svg id="Capa_1" enable-background="new 0 0 512.914 512.914" viewBox="0 0 512.914 512.914" xmlns="http://www.w3.org/2000/svg"><g><path d="m488.49 454.977c-2.807-15.436-17.218-26.048-32.776-24.136l-27.974 3.416c-8.936 1.086-17.829-2.729-23.188-9.976-13.479-18.226-29.86-33.865-48.688-46.484l-43.564-29.196c-4.936-3.309-8.655-7.995-10.756-13.553l-80.079-211.822c-1.465-3.875-5.795-5.827-9.668-4.363-3.874 1.465-5.828 5.793-4.363 9.668l66.771 176.621-8.885-1.907c-11.556-2.479-21.05-10.521-25.396-21.513-4.078-10.313-11.578-19.107-21.117-24.761l-8.617-5.106c-11.504-6.816-18.097-19.339-17.207-32.681l1.404-21.072c1.236-18.542-7.601-36.465-23.064-46.775-16.105-10.737-21.226-32.327-11.654-49.152l22.711-39.927 13.713 36.272c1.135 3.001 3.987 4.85 7.017 4.85.882 0 1.778-.156 2.651-.486 3.874-1.465 5.828-5.793 4.363-9.668l-33.411-88.376c-1.465-3.875-5.796-5.827-9.668-4.363-3.874 1.465-5.828 5.793-4.363 9.668l12.807 33.877-28.86 50.736c-13.444 23.636-6.253 53.966 16.372 69.049 11.008 7.339 17.299 20.098 16.419 33.297l-1.404 21.072c-1.269 19.018 8.13 36.867 24.526 46.583l8.617 5.106c6.692 3.966 11.954 10.136 14.815 17.372 6.194 15.667 19.727 27.13 36.198 30.663l18.344 3.936 6.996 18.506c3.21 8.491 8.894 15.652 16.436 20.708l43.564 29.197c17.394 11.657 32.527 26.105 44.979 42.942 8.564 11.581 22.764 17.688 37.066 15.945l27.973-3.416c7.687-.924 14.813 4.3 16.201 11.931 1.004 5.52-1.284 11.211-5.83 14.499-33.855 24.49-76.312 31.956-116.488 20.479l-29.023-8.29c-10.18-2.906-20.912-2.805-31.035.293l-33.017 10.108c-16.842 5.157-35.298 1.912-49.369-8.681-18.306-13.778-26.24-37.798-19.745-59.77l17.422-58.926c4.228-14.296.91-29.547-8.873-40.796l-49.609-57.049c-2.717-3.125-7.454-3.456-10.581-.737-3.125 2.718-3.456 7.455-.737 10.581l49.609 57.049c6.402 7.361 8.573 17.343 5.807 26.699l-17.422 58.927c-8.26 27.939 1.83 58.484 25.108 76.006 17.894 13.469 41.362 17.596 62.781 11.04l33.017-10.108c7.347-2.25 15.136-2.324 22.525-.213l29.023 8.29c13.733 3.923 27.707 5.854 41.568 5.853 31.183 0 61.797-9.769 87.83-28.601 9.198-6.652 13.829-18.167 11.798-29.335z"></path><path d="m40.866 50.017-1.922-42.851c-.187-4.138-3.7-7.357-7.828-7.156-4.138.186-7.342 3.69-7.156 7.828l1.922 42.851c3.412 76.029 34.509 147.95 87.562 202.517 1.47 1.512 3.423 2.271 5.378 2.271 1.884 0 3.77-.706 5.228-2.123 2.97-2.887 3.036-7.636.148-10.605-50.49-51.931-80.084-120.377-83.332-192.732z"></path><path d="m330.295 298.839-2.924-1.411c-3.732-1.8-8.214-.234-10.014 3.496s-.234 8.214 3.496 10.014l20.356 9.821c1.029.497 2.144.745 3.259.745 1.083 0 2.167-.234 3.172-.704 2.042-.952 3.547-2.772 4.099-4.956l5.335-21.085c1.017-4.016-1.415-8.095-5.431-9.11-3.646-.923-7.344 1.005-8.751 4.379l-92.101-224.145c-1.575-3.831-5.956-5.66-9.788-4.087-3.831 1.574-5.661 5.957-4.087 9.788z"></path></g></svg>