<!-- icon666.com - MILLIONS vector ICONS FREE --><svg id="Capa_1" enable-background="new 0 0 512 512" viewBox="0 0 512 512" xmlns="http://www.w3.org/2000/svg"><g><path d="m422 127.531c0-12.406-10.093-22.5-22.5-22.5s-22.5 10.094-22.5 22.5 10.093 22.5 22.5 22.5 22.5-10.093 22.5-22.5zm-30 0c0-4.136 3.364-7.5 7.5-7.5s7.5 3.364 7.5 7.5-3.364 7.5-7.5 7.5-7.5-3.364-7.5-7.5zm-339.5 279.469c-12.407 0-22.5 10.094-22.5 22.5s10.093 22.5 22.5 22.5 22.5-10.094 22.5-22.5-10.093-22.5-22.5-22.5zm0 30c-4.136 0-7.5-3.364-7.5-7.5s3.364-7.5 7.5-7.5 7.5 3.364 7.5 7.5-3.364 7.5-7.5 7.5zm173.5-301c12.407 0 22.5-10.094 22.5-22.5s-10.093-22.5-22.5-22.5c-.698 0-1.388.037-2.07.099l-6.119-13.27c-1.734-3.761-6.189-5.404-9.951-3.67s-5.405 6.189-3.67 9.951l6.124 13.281c-4.199 4.09-6.814 9.798-6.814 16.108 0 12.407 10.093 22.501 22.5 22.501zm0-30c4.136 0 7.5 3.364 7.5 7.5s-3.364 7.5-7.5 7.5-7.5-3.364-7.5-7.5 3.364-7.5 7.5-7.5zm226 187.229v-180.729c0-20.678-16.822-37.5-37.5-37.5h-81.7c-16.186-44.875-59.067-75-106.8-75-16.191 0-31.831 3.341-46.486 9.929-3.778 1.698-5.464 6.138-3.765 9.916 1.698 3.777 6.139 5.461 9.916 3.766 12.708-5.715 26.278-8.611 40.335-8.611 41.514 0 78.798 26.257 92.776 65.331 2.065 5.783 7.556 9.669 13.664 9.669h82.06c12.407 0 22.5 10.094 22.5 22.5v173.697c-12.975-4.987-27.055-7.729-41.766-7.729-17.506 0-34.343 3.781-50.043 11.239-3.742 1.777-5.334 6.251-3.557 9.992 1.777 3.742 6.25 5.333 9.992 3.557 13.674-6.495 28.346-9.788 43.608-9.788 56.114.001 101.766 45.652 101.766 101.766s-45.652 101.766-101.766 101.766-101.766-45.651-101.766-101.766c0-27.851 11.035-53.848 31.072-73.202 2.979-2.878 3.061-7.626.184-10.605-2.878-2.979-7.625-3.062-10.605-.184-22.989 22.207-35.65 52.035-35.65 83.991 0 3.971.201 7.896.59 11.766h-121.709c-7.995 0-14.5 6.505-14.5 14.5v16c0 7.995 6.505 14.5 14.5 14.5h135.878c2.94 5.262 6.271 10.277 9.962 15h-265.69c-12.407 0-22.5-10.094-22.5-22.5v-332c0-12.406 10.093-22.5 22.5-22.5h82.06c6.107 0 11.599-3.886 13.662-9.664 5.202-14.542 13.924-27.86 25.225-38.516 3.014-2.842 3.153-7.589.311-10.603-2.841-3.012-7.588-3.151-10.602-.312-12.94 12.203-22.947 27.444-28.956 44.095h-81.7c-20.678 0-37.5 16.822-37.5 37.5v332c0 20.678 16.822 37.5 37.5 37.5h279.681c20.698 18.639 48.073 30 78.053 30 64.385 0 116.766-52.381 116.766-116.766 0-43.793-24.238-82.026-60-102.005zm-294.15 143.771v-15h123.719c1.21 5.139 2.763 10.146 4.629 15zm68.15-243.537c44.092 0 79.963-35.871 79.963-79.963s-35.871-79.963-79.963-79.963-79.963 35.871-79.963 79.963 35.871 79.963 79.963 79.963zm0-144.926c35.821 0 64.963 29.143 64.963 64.963s-29.142 64.963-64.963 64.963-64.963-29.143-64.963-64.963 29.142-64.963 64.963-64.963zm-173.5 56.494c-12.407 0-22.5 10.094-22.5 22.5s10.093 22.5 22.5 22.5 22.5-10.094 22.5-22.5-10.093-22.5-22.5-22.5zm0 30c-4.136 0-7.5-3.364-7.5-7.5s3.364-7.5 7.5-7.5 7.5 3.364 7.5 7.5-3.364 7.5-7.5 7.5zm342.734 197.395c-4.142 0-7.5 3.357-7.5 7.5v92.511l-19.28-19.28c-2.929-2.93-7.678-2.929-10.606-.001-2.929 2.93-2.929 7.678 0 10.607l32.075 32.075c2.419 2.506 7.496 3.286 10.614.009l32.083-32.084c2.929-2.93 2.929-7.678 0-10.607-2.929-2.928-7.678-2.928-10.606 0l-19.28 19.281v-92.511c0-4.143-3.358-7.5-7.5-7.5z"></path></g></svg>